<?xml version="1.0" encoding="UTF-8"?>
<!DOCTYPE svg PUBLIC "-//W3C//DTD SVG 1.1//EN" "http://www.w3.org/Graphics/SVG/1.1/DTD/svg11.dtd">
<!-- Creator: CorelDRAW -->
<svg xmlns="http://www.w3.org/2000/svg" xml:space="preserve" width="6.72in" height="6.72in" style="shape-rendering:geometricPrecision; text-rendering:geometricPrecision; image-rendering:optimizeQuality; fill-rule:evenodd; clip-rule:evenodd"
viewBox="0 0 6.72 6.72"
 xmlns:xlink="http://www.w3.org/1999/xlink">
 <defs>
  <style type="text/css">
   <![CDATA[
    .fil3 {fill:none}
    .fil0 {fill:url(#id0);fill-rule:nonzero}
    .fil2 {fill:url(#id1);fill-rule:nonzero}
    .fil1 {fill:url(#id2);fill-rule:nonzero}
   ]]>
  </style>
  <linearGradient id="id0" gradientUnits="userSpaceOnUse" x1="1.10809" y1="4.21717" x2="5.6119" y2="4.21717">
   <stop offset="0" style="stop-color:#321B71"/>
   <stop offset="1" style="stop-color:#3093B0"/>
  </linearGradient>
  <linearGradient id="id1" gradientUnits="userSpaceOnUse" xlink:href="#id0" x1="3.28" y1="4.84189" x2="3.44" y2="4.84189">
  </linearGradient>
  <linearGradient id="id2" gradientUnits="userSpaceOnUse" xlink:href="#id0" x1="1.59617" y1="1.72192" x2="5.12383" y2="1.72192">
  </linearGradient>
 </defs>
 <g id="Layer_x0020_1">
  <metadata id="CorelCorpID_0Corel-Layer"/>
  <path class="fil0" d="M1.43798 2.51434l3.84404 0c0.0908031,0 0.173295,0.0370945 0.233043,0.0968425 0.059752,0.059748 0.0968425,0.142244 0.0968425,0.233047l0 2.74588c0,0.0908031 -0.0370906,0.173299 -0.0968425,0.233047 -0.059748,0.059748 -0.14224,0.0968425 -0.233043,0.0968425l-3.84404 0c-0.0908031,0 -0.173299,-0.0370945 -0.233047,-0.0968425 -0.059748,-0.059748 -0.0968425,-0.142244 -0.0968425,-0.233047l0 -2.74588c0,-0.0908031 0.0370945,-0.173299 0.0968425,-0.233047 0.059748,-0.059748 0.142244,-0.0968425 0.233047,-0.0968425zm3.84404 0.16l-3.84404 0c-0.0466339,0 -0.0890945,0.0191417 -0.119921,0.0499685 -0.0308268,0.0308268 -0.0499685,0.0732874 -0.0499685,0.119921l0 2.74588c0,0.0466339 0.0191417,0.0890945 0.0499685,0.119921 0.0308268,0.0308268 0.0732874,0.0499685 0.119921,0.0499685l3.84404 0c0.0466339,0 0.0890906,-0.0191417 0.119917,-0.0499685 0.0308307,-0.0308268 0.0499685,-0.0732874 0.0499685,-0.119921l0 -2.74588c0,-0.0466339 -0.0191378,-0.0890945 -0.0499685,-0.119921 -0.0308268,-0.0308268 -0.0732835,-0.0499685 -0.119917,-0.0499685z"/>
  <path class="fil1" d="M1.59617 2.56383c0,0.0441811 0.0358189,0.08 0.08,0.08 0.0441811,0 0.08,-0.0358189 0.08,-0.08 0,-0.442894 0.179516,-0.843858 0.469748,-1.13409 0.290228,-0.290232 0.691193,-0.469748 1.13409,-0.469748 0.442894,0 0.843858,0.179516 1.13409,0.469748 0.290232,0.290228 0.469748,0.691193 0.469748,1.13409 0,0.0441811 0.0358189,0.08 0.08,0.08 0.0441811,0 0.08,-0.0358189 0.08,-0.08 0,-0.487063 -0.197429,-0.928024 -0.516622,-1.24721 -0.319189,-0.319193 -0.76015,-0.516622 -1.24721,-0.516622 -0.487063,0 -0.928024,0.197429 -1.24721,0.516622 -0.319193,0.319189 -0.516622,0.76015 -0.516622,1.24721z"/>
  <path class="fil2" d="M3.44 4.34163c0,-0.0441811 -0.0358189,-0.08 -0.08,-0.08 -0.0441811,0 -0.08,0.0358189 -0.08,0.08l0 1.00054c0,0.0441811 0.0358189,0.08 0.08,0.08 0.0441811,0 0.08,-0.0358189 0.08,-0.08l0 -1.00054z"/>
 </g>
 <rect class="fil3" width="6.72" height="6.72"/>
</svg>
